<?xml version="1.0" encoding="UTF-8"?>
<!DOCTYPE svg PUBLIC "-//W3C//DTD SVG 1.1//EN" "http://www.w3.org/Graphics/SVG/1.1/DTD/svg11.dtd">
<!-- Creator: CorelDRAW X7 -->
<svg xmlns="http://www.w3.org/2000/svg" xml:space="preserve" width="3034px" height="1644px" version="1.1" shape-rendering="geometricPrecision" text-rendering="geometricPrecision" image-rendering="optimizeQuality" fill-rule="evenodd" clip-rule="evenodd"
viewBox="0 0 3034 1644"
 xmlns:xlink="http://www.w3.org/1999/xlink">
 <g id="Слой_x0020_1">
  <metadata id="CorelCorpID_0Corel-Layer"/>
  <path fill="#E6E6E6" d="M1894 1331l-3 0c-7,0 -4,-9 -7,0 -6,16 3,-6 3,16 -25,19 -9,15 -28,28 -18,9 -18,12 -37,19 0,37 -56,43 -63,25 32,-10 32,3 50,-25l32 -32c0,0 12,-6 15,-6 -15,-9 13,3 -6,-3 -6,0 -3,3 -9,0 15,-6 31,-37 34,-53 3,-9 9,-22 12,-31 4,-13 0,-25 16,-25 3,15 0,31 -3,43 0,10 0,16 0,25 -3,13 -3,7 -6,19l0 0zm-719 -887c3,-3 3,0 3,-16 0,-6 0,-12 0,-19 -16,0 -22,7 -12,25 6,10 3,7 9,10l0 0zm-128 -85l-3 -25c-16,-3 -28,3 -28,13 -4,15 18,12 31,12l0 0zm1172 28c15,0 28,-3 37,-9 -3,-9 -6,-16 -22,-16 -18,4 -15,13 -15,25zm22 -96c18,6 50,3 46,-25 -9,0 -3,0 -12,3 -3,0 -3,0 -6,0 -10,3 -19,3 -28,22zm403 -204c0,0 0,0 0,0 0,0 0,-3 0,-3 3,-6 3,0 3,-6 3,-3 3,-6 3,-6 0,0 0,0 0,-3 6,-13 6,-16 6,-32 -31,-3 -37,44 -12,50l0 0zm-922 160c0,-13 0,-10 6,-19 -9,-6 -6,-3 -12,-16l-32 7 0 12 -9 0c-6,13 3,6 -6,13 0,3 0,0 -7,6l4 3c9,9 9,6 15,9l13 19c6,10 28,19 47,16 0,-3 3,-31 0,-38l-10 0c-6,-6 -3,-6 -9,-12l0 0zm12 81c13,0 13,-3 28,-6 16,-3 19,0 32,-10 0,-6 0,-12 -16,-21 -19,-7 3,-19 -19,-10 -3,3 -25,41 -25,47l0 0zm-1493 -106c37,-6 25,-6 28,-44 -25,0 -16,6 -22,-25l-22 0 16 69 0 0zm2431 887c6,10 9,25 15,38 7,15 16,15 29,25 12,9 6,15 18,31 3,6 7,9 10,16l15 28c3,6 0,0 3,9 13,38 19,6 29,44 6,22 12,12 18,37 3,16 10,22 22,29l-3 -32 13 -6 9 0c6,6 3,3 12,9 -3,-21 0,-12 -12,-25l-16 4c-12,-16 -3,-7 -22,-16 -9,-3 -12,-9 -15,-22 -6,-16 -13,-37 -10,-56 13,0 19,-3 32,-3 -13,0 -57,-50 -69,-63 -9,-9 -25,-15 -31,-31 -10,-19 -10,-31 -25,-41l-22 -28c-16,-9 -6,-3 -13,0 -3,22 -3,6 10,16 9,9 3,6 9,19 -31,12 -9,18 -6,18l0 0zm-1541 -756c3,3 16,31 38,34 -10,-28 3,-59 22,-75 6,-3 15,-6 18,-6l44 -19c44,-15 25,-3 47,-9 19,-6 25,-6 47,0 19,3 81,22 72,-16 -19,-9 -25,0 -44,-3 -28,0 -28,-22 -75,-18 -31,0 -19,6 -34,-4 -7,13 12,4 -7,13l-9 3c0,0 0,0 0,0l-16 6c-9,0 -15,0 -25,0 0,16 -6,7 7,13 -75,9 -32,19 -60,22 -12,0 -6,-3 -25,0 -9,3 -3,3 -6,12 0,3 0,3 0,6 0,13 -3,35 6,41l0 0zm469 56c-13,3 -13,0 -22,7 -16,6 -9,9 -25,12 3,0 3,0 3,0 0,3 3,3 3,6 10,13 10,10 10,19l-28 3c-19,-3 -41,-15 -54,-6 -3,3 -9,31 -9,37 0,4 6,7 9,13 7,6 4,6 7,16 6,12 15,3 0,28 -3,3 -3,3 -7,9 0,3 0,6 0,9 -3,-12 0,-3 -6,-6 -12,-3 0,-12 3,-15 10,-10 10,3 13,-16 -38,-9 -16,-3 -31,-28l-25 -31c-22,9 -7,6 -7,25l0 3c-22,-7 0,-10 -22,-10 -15,25 13,19 13,47l-6 -6c-10,-9 -7,-6 -19,-16 -3,-3 -3,-3 -6,-6 0,-12 6,-22 12,-28 3,-6 6,-6 6,-16 4,-9 4,-12 0,-15 -6,12 0,15 -12,25 -25,9 -13,-7 -34,15 0,66 0,25 -22,60 -7,9 -3,3 -7,15 0,7 -3,7 -3,16l13 3c19,6 34,6 31,53 -6,3 -19,3 -16,19 4,6 13,12 19,12 -6,7 -28,-3 -22,-18 3,-16 16,-16 7,-47 0,0 0,0 0,-3l-35 -3c-15,53 6,25 -25,50 -12,6 -6,12 -22,15 -6,0 -12,0 -15,3 -13,3 -3,0 -13,10 -9,-7 -6,-7 -12,-10 -7,-9 0,0 -10,-9 -6,-3 0,0 -3,-3 -6,-6 0,-6 6,-3 13,6 22,-7 44,-19 31,-16 13,-6 25,-22 6,-6 6,-6 13,-9 -3,-16 -10,-16 -3,-32 21,-46 34,-40 34,-87 12,-9 28,-22 34,-41 -12,-15 -18,-18 -31,-28 -34,13 -19,31 -59,41 -19,3 -7,0 -19,9 3,16 9,6 -3,22 -10,19 -3,9 -19,19 0,12 6,9 6,25 0,19 -3,9 3,28 -9,6 -12,9 -21,16 0,-16 -4,-29 -10,-41l-15 -28c-4,-22 -13,-28 -25,-44 -10,-9 0,-6 -19,-6l-6 12c-7,25 0,13 -22,16 0,3 0,3 0,3l-7 0c-6,3 -3,3 -9,3 0,-25 6,0 9,-28 -25,-6 -28,3 -40,-16l-13 -9c-15,-6 -6,6 -12,-12 6,0 12,-4 19,-4 -7,-9 -4,-9 -16,-12 -6,0 -9,0 -16,0 -12,3 0,0 -6,3 -22,9 13,0 -6,3 -3,-9 0,-9 -13,-15l-47 -10c-28,-6 -15,0 -37,10 -9,-7 -13,-10 -19,-16l3 -31c28,-3 16,3 35,9 18,-22 6,-37 -10,-59 -3,18 0,18 -12,25 -10,6 -16,9 -28,12 -7,38 -19,22 -35,35 0,-19 3,-16 -6,-35 -28,0 -34,-9 -62,-9 -4,3 -4,6 -7,12l-3 13c-9,0 -12,-3 -22,-6l-3 -47c-3,-10 -25,-10 -22,15 0,7 3,13 -3,19 -6,3 -3,6 -12,3 -13,-6 -10,-22 -7,-31 4,-22 0,-6 0,-25 7,-6 13,-13 22,-22 16,-16 19,0 28,-16 7,-6 4,-25 16,-50 3,-6 6,-3 6,-12 3,12 -3,19 0,41 3,18 0,21 10,43 0,10 0,53 53,50 37,0 34,-47 34,-62 0,-16 3,-28 3,-44 3,-28 0,-25 -6,-44 -3,-9 -6,-18 -3,-34 6,16 0,9 9,12 0,-15 0,-12 -3,-18l-25 -19c-6,-3 -12,-6 -22,-3 -34,-13 -37,19 -40,22 0,3 -7,12 -7,15 -25,3 -28,-9 -43,10 -44,50 -38,9 -66,43l-3 4c-9,9 -6,0 -13,18l-25 0c-9,38 -6,50 -50,41 -12,-3 -31,-6 -43,-9 -13,-4 -19,-10 -41,-10l9 10c-9,3 -12,3 -9,21 0,10 3,-3 0,13 0,9 -3,6 -3,9 -9,-18 9,-6 -19,-28l-9 -9c-28,19 -22,-10 -63,19 -15,9 -6,6 -25,6 -9,22 -12,9 -22,22 -12,9 -6,9 -25,22 0,12 0,12 7,25l-10 9c19,19 22,28 0,41 -12,6 -6,3 -22,6 -3,15 0,6 -6,15 -9,13 -6,7 -9,19l-6 16c0,9 0,9 -7,19 -34,-10 -9,-13 -25,-25 -12,6 -6,9 -18,15 -10,10 -13,6 -13,22 9,6 6,0 16,9 18,22 15,41 3,47 -10,3 -6,-3 -19,13 13,37 0,25 -12,44 0,3 3,28 25,43 -4,10 -7,19 -10,28 -15,7 -12,10 -31,7 -13,-3 -19,-7 -28,-10 -13,13 -16,16 -35,13 -12,-22 13,-3 -12,-44 -16,3 -9,9 -22,9 -9,-9 -16,-15 -19,-31l-6 -9 -22 6c-3,0 0,3 -3,0 -9,-3 -9,-6 -19,-19 0,0 0,0 0,0l-6 13c-3,-6 -3,-6 -6,-13 -3,3 -6,0 -6,10 -4,12 -4,12 6,18 0,7 15,22 6,29 -6,3 -19,-16 -37,-19 0,12 6,25 3,37l-19 10 3 15c16,7 16,3 31,16 7,6 3,3 13,6 12,10 3,25 22,25 6,0 6,-3 9,-3 -6,-12 0,-6 -9,-16 -22,-21 -7,-15 -7,-62 0,-19 -3,-6 7,-13l0 10c3,15 9,19 18,25 13,6 22,12 32,22 12,9 28,18 37,28l25 25c0,3 3,-6 0,9 -15,0 -28,-15 -44,-22l-3 25c-3,0 -9,-9 -15,-9 -10,0 -19,6 -28,6l-10 -22c-6,3 6,3 -9,3 3,22 -3,41 0,63 6,28 -3,37 -3,59l6 3c0,4 0,0 3,7 13,12 9,34 19,47 6,12 9,6 15,28 4,18 7,22 0,37 7,3 16,10 22,16 10,9 3,19 13,28 -13,22 -6,19 0,44 6,43 -25,40 37,50 10,-32 7,-57 28,-72l10 -10c9,-9 6,-28 9,-40 13,-3 16,0 28,-3 13,0 19,-7 25,-3 19,3 28,15 47,9l0 -3c3,-3 3,-3 3,-3 0,0 0,-3 0,-3 0,-4 -3,-7 -3,-13 16,6 0,3 13,9 3,-15 9,-25 12,-37 3,-16 -3,-19 -15,-28 6,-13 6,-6 9,-16 6,-12 0,-6 0,-22 16,-3 12,-3 31,-6 16,-25 0,-12 31,-22 7,0 10,-3 19,-3 6,16 -9,22 -3,38 19,3 16,-4 25,-16 38,0 66,9 75,3 9,28 -3,19 28,28 3,10 -6,3 3,19 10,16 13,6 13,37 0,16 -3,13 -10,22 13,-3 10,-12 19,-12 3,12 3,25 6,34 13,0 19,-3 29,0 12,3 15,6 15,19 19,3 25,0 25,19 0,22 10,25 22,31 3,0 3,0 3,0 6,6 6,9 19,16 3,3 9,3 16,0 0,0 6,-4 6,-7 6,-6 3,0 6,-6l-16 -44 29 3c6,-9 0,-9 6,-18 31,-7 12,6 34,12 0,-15 -9,-15 -9,-25 0,-9 6,-19 19,-22 6,7 15,13 28,19l50 19c15,6 9,-3 28,3 69,31 75,3 90,22 10,9 10,12 19,15l3 4c0,6 0,18 -3,25 -3,15 -6,6 -9,18 6,3 3,0 6,7 6,0 3,0 9,-4 0,4 7,10 7,13l3 12c12,-6 0,-3 12,-6 3,13 3,10 16,16 -16,6 -13,-3 -19,12 10,3 16,3 22,13 13,-10 16,-6 31,-10 13,0 22,-3 38,0 0,7 3,4 -3,7 0,0 0,0 0,0l-7 3c4,31 13,3 25,119l7 40c0,0 0,3 3,3 19,-3 19,-28 28,3 12,44 59,-6 69,47 3,19 0,7 9,19 6,6 3,13 6,25 25,13 22,6 41,3 -6,13 3,25 12,35 13,0 16,-4 25,-7 10,-6 25,3 38,-6l6 -3c6,-6 13,-6 22,-9 19,-7 44,-19 66,-10 9,3 0,0 9,6 9,4 16,4 28,7 0,9 0,15 6,22 0,3 16,6 22,9l50 12c10,-3 19,-6 25,-15 7,-16 -9,-28 -3,-44 3,-16 19,-19 28,-34 3,3 7,6 16,9 19,13 44,22 66,28 0,25 0,35 15,44 22,9 28,9 47,3 22,-9 25,-6 47,-3 19,3 6,0 22,9 12,10 6,3 22,7 12,31 34,28 68,28 22,0 13,-7 35,-13 50,-15 25,-12 56,-37 16,-10 19,-10 34,0 25,12 16,-7 35,-3 12,3 28,15 44,9 18,-16 3,-13 31,-25 3,-22 -6,-25 9,-69 3,-15 19,-28 3,-44 -3,-3 3,4 -6,-3l-9 -3c15,-25 9,-19 31,-34 50,-28 47,-19 72,-13 15,0 9,-6 28,0 25,7 44,47 59,66 7,9 10,6 16,16 37,56 9,31 56,31 16,0 13,-3 22,3 9,3 16,6 31,6 0,0 0,0 0,0 0,3 0,3 0,3l3 3c10,13 13,22 25,32 7,-3 19,-7 25,-10 16,-6 10,-6 19,-18 6,-19 6,-7 19,-19 6,-10 3,-16 22,-16 0,0 0,0 0,3 0,10 9,10 12,22 -3,19 -9,6 -6,25 3,10 6,19 6,31 3,19 0,44 -3,63 -44,6 -28,0 -50,31 10,10 31,47 31,66 0,22 -6,3 -15,22 9,0 12,-3 22,-3l9 -35c9,3 6,3 16,-3 3,6 6,16 28,9l12 -9c3,-3 7,-6 10,-9 31,-41 28,-85 43,-135 13,-31 10,-37 10,-72 -3,-28 6,-56 6,-78 3,-12 -3,-25 -6,-34l-31 -59c-10,-25 -4,-32 -7,-54 0,-12 -9,-15 -15,-25 -7,-9 -3,-6 -16,-9 28,-16 -22,-22 -31,-25 -6,-3 -6,-6 -13,-6 -3,0 -3,0 -3,0 -15,-3 -22,0 -37,0 -35,-3 3,-10 -25,-16 -13,10 -13,10 -7,22 7,13 13,16 -3,19l-3 -6c-19,12 -15,9 -37,12 0,-19 6,-16 12,-37 3,-16 10,-22 13,-38 6,-16 3,-31 6,-50 3,-9 9,-25 12,-37 10,-25 -3,-19 7,-44 9,-25 -10,-41 37,-69 19,-12 13,-12 35,-12 3,-25 0,-10 18,-19 16,-10 0,-3 13,-13l6 -3c13,-3 -6,-15 9,-28 16,-9 19,0 29,-16 12,-3 9,0 15,0 10,-3 3,0 13,-3 -7,19 -10,-3 -13,22 19,0 13,0 19,-12 0,0 0,0 3,0 0,0 0,-3 0,-3 6,-7 9,0 9,-22 19,-7 10,3 19,-13l10 -15c-10,-4 -16,-4 -19,9 -22,-13 -13,-56 -19,-84 -3,-25 -12,-19 16,-57 6,-9 3,-12 15,-6l3 -16c10,7 7,7 10,16 12,22 12,13 15,13 10,0 4,3 16,3l-3 -57c16,-3 9,-12 16,-12 6,3 3,0 6,6 3,6 3,3 6,10l6 0c10,-4 -6,28 0,43 7,22 3,35 7,57 0,9 21,68 -7,96 13,13 16,7 16,32 3,37 34,72 62,90 16,13 41,35 57,44 53,31 15,19 59,44 6,-25 3,-81 -25,-91 16,-12 0,-15 13,-28l9 -6c-31,-10 -34,-44 -28,-56 9,-10 15,-4 12,-29 -12,-9 -43,-6 -40,-46l15 -4c3,-15 10,-12 -22,-25l-6 7c-3,-3 -9,-7 -12,-13 -7,-9 -3,-9 -7,-22 -28,0 -9,13 -21,16 -10,-3 -13,-3 -19,-16 -6,-12 -3,-15 -10,-34l-3 -3c0,0 0,-6 -3,-6 0,0 -15,-10 -12,-25l9 -13c0,-3 0,0 3,-3 3,0 3,0 3,-3l7 0c-10,-16 -7,-6 -7,-38 7,7 3,3 7,7 15,12 3,9 18,12 -15,-28 0,-62 13,-69 6,-6 19,-3 31,-3 -9,-25 -12,-3 -12,-40l-10 -47c-3,-19 10,-78 -6,-91l34 -25c-3,-6 -3,-9 -6,-19 -19,-3 -34,-3 -47,4 -3,-7 0,-16 -22,-10 -3,3 -34,19 -22,-6 10,-19 10,-38 0,-50 -12,-19 -40,0 -34,-25l6 -6c10,6 3,9 22,6 19,0 10,-3 13,-19 3,-12 3,-6 9,-15l28 0c16,-7 -3,0 22,-19 9,0 9,0 13,-6 6,-10 0,3 3,-7 0,-3 3,-9 3,-9l-25 -16c-3,-3 9,-3 -10,-3l-6 -6 0 -10c6,-18 0,-12 -12,-34l-3 -3c-4,6 -7,6 -19,12 -3,4 -6,4 -10,4 -28,12 -6,6 -21,25 -7,9 -7,0 -10,18 6,-6 6,-3 16,0 0,0 9,10 12,10 -18,12 -25,-7 -50,-3l-6 0c-12,3 -6,3 -6,9 -19,-3 -25,12 -53,22l-53 25c-10,9 -13,12 -22,19 -25,15 -19,31 -38,43 -9,10 -15,16 -19,25 7,7 4,7 13,13 9,3 9,-3 22,6l0 22c-10,0 -6,0 -13,0 -34,6 -6,3 -34,0l-3 6c-3,13 -3,19 -25,35 -16,9 -28,25 -31,46 -13,-9 -7,0 -22,0 -13,-9 -7,-18 -25,-21 -25,-4 -47,18 -60,37 -34,50 -9,19 -68,28 -10,0 -7,-3 -13,3 0,-6 3,-9 6,-15 -22,-3 -28,0 -40,9 -7,0 -7,0 -10,0 -12,3 -6,3 -12,6 -22,7 -38,19 -63,22 10,10 7,3 7,16 -10,6 -13,3 -13,19l19 15c9,16 -6,6 -16,13 -3,25 0,-3 3,18 -18,-3 -28,-15 -43,7 -4,6 -4,9 -16,9 -6,-3 -16,-6 -19,-12l0 50c-28,0 -40,-22 -65,-44 12,3 6,6 18,6l0 -9 -6 -16c0,-3 0,-9 0,-12l-25 -10c-22,-3 -6,16 -47,0l-12 13c3,12 6,9 6,22 -19,9 -56,12 -63,6 -6,-3 -3,0 -3,-6 0,-4 0,-4 0,-4 3,-9 7,7 3,-3l-40 0c-31,3 -25,-6 -28,-9 -7,-22 12,-16 -19,-22l6 -9c3,-10 6,-10 10,-22 -10,-13 0,-3 -10,-6 3,-7 -3,-4 6,-7l4 0c-7,-18 -7,-9 -13,-22 -6,-6 -6,-15 -41,-12 -18,3 -15,6 -25,9 0,-6 4,-12 4,-15 -7,-3 3,-3 -22,-7 12,-9 6,4 9,-18l-16 0c-25,-3 -37,15 -40,40 -38,3 -10,0 -25,10l-13 6c-6,3 -6,3 -15,0 -16,-6 18,-9 -32,-6 -3,3 -6,0 0,3 7,3 0,3 4,0 -22,6 -50,3 -66,12l0 0zm1241 -162c3,0 6,0 6,0 0,0 3,0 3,0 3,-3 6,-3 6,-10 0,-21 0,-3 -3,-12 -3,3 -3,3 -3,3l-9 19zm-1447 -156l-3 6c-7,3 -4,-3 -7,6l13 9 -6 0c15,4 6,-3 9,16 12,0 12,0 22,-6 0,0 3,0 3,0 12,3 12,0 16,-3l0 -3c0,0 0,-4 0,-4 6,-6 3,4 3,-12l-22 0 12 -13c-3,-15 0,-3 -6,-6 0,-3 3,-6 -9,-9l-13 3c-9,-6 -3,-3 -12,-6 0,9 3,3 -7,6 7,12 7,3 7,16l0 0zm497 371c-7,13 -10,10 -19,4 12,-7 -3,-4 9,-7 13,-3 10,3 10,3l0 0zm-425 10c0,-3 3,0 0,-6 0,-7 0,-4 0,-7 -10,3 -16,7 0,13l0 0zm-100 -388c9,-3 6,7 6,-3 3,-12 3,-3 -3,-9 -3,3 -10,-3 -3,12l0 0zm1184 1019c3,-12 3,-6 0,-16l-13 0c0,16 -3,10 13,16zm-1103 -981c3,9 9,9 22,9 0,-12 3,-9 -10,-12 -6,0 -9,0 -12,3l0 0zm1147 125c9,0 12,-3 18,-6l-3 -13c-12,3 -15,3 -15,19zm315 353c19,-25 0,-28 0,-28 -3,0 -15,0 0,28zm-1550 -194c10,3 16,3 22,6l-3 -18c-12,0 -16,0 -19,12zm838 -72c-6,3 -22,3 -16,-12 6,-10 13,-6 22,-6l-6 18c28,-15 28,3 28,-47 -16,0 -22,4 -34,7 -13,0 -7,-7 -13,3 -6,9 0,3 0,6l-3 9c0,0 0,0 0,0 0,0 -3,-3 -3,-3 -13,-3 -13,-3 -22,-3 -19,35 12,53 28,50 9,-3 -3,3 6,-9 10,-10 10,-3 13,-13l0 0zm-44 0c0,0 -6,-3 -3,-12 3,-19 25,-13 31,9 0,6 0,13 -3,22l-19 -3 0 -16 0 -3c0,0 0,0 0,3 0,0 -3,0 -6,0l0 0zm59 41c7,-13 4,-3 4,-16 -4,0 3,-9 -10,0 -12,7 0,13 6,16zm788 916l-13 -7c-3,7 -6,44 -3,53 7,-6 16,-43 16,-46l0 0zm25 -288c6,-3 0,0 6,-3 6,-9 0,-22 0,-34 0,-7 3,-4 0,-13 -15,9 -12,44 -6,50zm-1678 -962c-13,-4 -13,9 -16,9 10,9 6,3 16,3 9,3 12,6 25,9 -3,-15 -3,-28 -19,-18 0,-13 0,-13 -16,-22 -6,-3 -3,0 -9,-3 0,31 13,3 19,22l0 0z"/>
 </g>
</svg>
