<?xml version="1.0" encoding="UTF-8"?>
<svg xmlns="http://www.w3.org/2000/svg" id="Layer_1" data-name="Layer 1" viewBox="0 0 24 24">
  <path d="m10.971,23.162c.092.26-.044.546-.304.638-.374.132-.766.2-1.167.2h-1c-1.93,0-3.5-1.57-3.5-3.5v-.348c0-1.707-.718-3.321-1.969-4.431C.77,13.719-.33,10.724.09,7.709.645,3.736,3.944.52,7.936.062c4.73-.543,9.093,2.685,9.924,7.351.049.272-.133.532-.404.58-.275.048-.531-.132-.58-.404-.738-4.147-4.617-7.014-8.826-6.533-3.546.408-6.478,3.264-6.97,6.792-.374,2.682.603,5.346,2.613,7.126.921.816,1.595,1.865,1.969,3.027h2.837v-7.542c-1.417-.239-2.5-1.474-2.5-2.958,0-.276.224-.5.5-.5s.5.224.5.5c0,1.103.897,2,2,2s2-.897,2-2c0-.276.224-.5.5-.5s.5.224.5.5c0,1.484-1.083,2.719-2.5,2.958v8.042c0,.276-.224.5-.5.5h-3.095c.063.378.095.763.095,1.152v.348c0,1.378,1.122,2.5,2.5,2.5h1c.287,0,.567-.048.833-.142.258-.093.545.043.638.304Zm8.029-6.162c0,1.103-.897,2-2,2s-2-.897-2-2,.897-2,2-2,2,.897,2,2Zm-1,0c0-.551-.448-1-1-1s-1,.449-1,1,.448,1,1,1,1-.449,1-1Zm5.2,2.392c.103.388.047.792-.155,1.137-.202.346-.526.593-.914.695-.386.102-.79.047-1.138-.156l-.641-.374c-.536.489-1.166.852-1.853,1.068v.738c0,.827-.673,1.5-1.5,1.5s-1.5-.673-1.5-1.5v-.738c-.687-.216-1.316-.579-1.853-1.068l-.641.374c-.347.203-.75.258-1.138.156-.388-.102-.712-.349-.914-.695-.202-.345-.257-.749-.156-1.137s.349-.713.695-.915l.646-.377c-.094-.385-.14-.747-.14-1.1s.046-.715.14-1.101l-.646-.377c-.346-.202-.593-.527-.695-.915s-.046-.792.156-1.137c.202-.346.526-.592.914-.694.388-.102.792-.046,1.138.155l.641.374c.537-.488,1.166-.852,1.853-1.067v-.738c0-.827.673-1.5,1.5-1.5s1.5.673,1.5,1.5v.738c.687.216,1.315.579,1.853,1.067l.642-.374c.347-.202.751-.256,1.137-.155.388.102.712.349.914.695.202.346.258.75.155,1.137-.102.388-.348.712-.694.915l-.646.376c.094.385.14.748.14,1.101s-.046.716-.14,1.1l.646.377c.347.202.593.526.694.914Zm-.967.254c-.034-.129-.116-.237-.231-.304l-.979-.572c-.202-.118-.295-.359-.225-.582.138-.438.202-.816.202-1.187s-.064-.749-.202-1.188c-.07-.223.023-.464.225-.582l.979-.571c.115-.067.197-.175.231-.304.034-.129.016-.264-.052-.379-.067-.115-.176-.198-.305-.231-.133-.035-.265-.015-.379.051l-.972.567c-.2.117-.457.081-.616-.089-.55-.586-1.249-.989-2.021-1.165-.228-.052-.389-.254-.389-.487v-1.12c0-.276-.225-.5-.5-.5s-.5.224-.5.5v1.12c0,.233-.161.436-.389.487-.772.176-1.472.579-2.021,1.165-.159.17-.417.206-.616.089l-.971-.567c-.116-.067-.251-.086-.379-.051-.129.034-.237.116-.305.231-.067.116-.086.25-.052.379.034.129.116.238.231.305l.979.571c.202.117.295.358.225.581-.138.44-.202.818-.202,1.188s.064.748.202,1.188c.07.223-.023.464-.225.582l-.979.572c-.115.067-.198.176-.231.305-.034.129-.016.263.052.378.067.116.176.198.305.232.13.034.264.016.379-.052l.972-.567c.078-.046.165-.068.252-.068.135,0,.268.054.364.158.55.586,1.249.989,2.021,1.165.228.052.389.254.389.487v1.12c0,.276.225.5.5.5s.5-.224.5-.5v-1.12c0-.233.161-.436.389-.487.772-.176,1.472-.579,2.021-1.165.159-.171.416-.208.616-.09l.972.567c.117.068.251.085.379.052.129-.034.237-.116.305-.231.067-.116.086-.25.052-.379Z"/>
</svg>
